<?xml version="1.0" encoding="UTF-8" standalone="no"?>
<!DOCTYPE svg PUBLIC "-//W3C//DTD SVG 1.1//EN"
 "http://www.w3.org/Graphics/SVG/1.1/DTD/svg11.dtd">
<!-- Generated by graphviz version 2.43.0 (0)
 -->
<!-- Title: Issue_Deployment_Tracker_ER Pages: 1 -->
<svg width="1002pt" height="304pt"
 viewBox="0.00 0.00 1002.00 304.00" xmlns="http://www.w3.org/2000/svg" xmlns:xlink="http://www.w3.org/1999/xlink">
<g id="graph0" class="graph" transform="scale(1 1) rotate(0) translate(4 300)">
<title>Issue_Deployment_Tracker_ER</title>
<polygon fill="white" stroke="transparent" points="-4,4 -4,-300 998,-300 998,4 -4,4"/>
<!-- User -->
<g id="node1" class="node">
<title>User</title>
<path fill="lightgrey" stroke="black" d="M12,-167.5C12,-167.5 188,-167.5 188,-167.5 194,-167.5 200,-173.5 200,-179.5 200,-179.5 200,-283.5 200,-283.5 200,-289.5 194,-295.5 188,-295.5 188,-295.5 12,-295.5 12,-295.5 6,-295.5 0,-289.5 0,-283.5 0,-283.5 0,-179.5 0,-179.5 0,-173.5 6,-167.5 12,-167.5"/>
<text text-anchor="middle" x="21" y="-227.8" font-family="Times,serif" font-size="14.00">User</text>
<polyline fill="none" stroke="black" points="42,-167.5 42,-295.5 "/>
<text text-anchor="start" x="50" y="-280.3" font-family="Times,serif" font-size="14.00">+ id (PK)</text>
<text text-anchor="start" x="50" y="-265.3" font-family="Times,serif" font-size="14.00">+ username (unique, NN)</text>
<text text-anchor="start" x="50" y="-250.3" font-family="Times,serif" font-size="14.00">+ email (unique, NN)</text>
<text text-anchor="start" x="50" y="-235.3" font-family="Times,serif" font-size="14.00">+ password (hashed, NN)</text>
<text text-anchor="start" x="50" y="-220.3" font-family="Times,serif" font-size="14.00">+ fullName</text>
<text text-anchor="start" x="50" y="-205.3" font-family="Times,serif" font-size="14.00">+ role (Enum)</text>
<text text-anchor="start" x="50" y="-190.3" font-family="Times,serif" font-size="14.00">+ createdAt</text>
<text text-anchor="start" x="50" y="-175.3" font-family="Times,serif" font-size="14.00">+ updatedAt</text>
</g>
<!-- ProjectMember -->
<g id="node3" class="node">
<title>ProjectMember</title>
<path fill="lightgrey" stroke="black" d="M415,-198.5C415,-198.5 630,-198.5 630,-198.5 636,-198.5 642,-204.5 642,-210.5 642,-210.5 642,-224.5 642,-224.5 642,-230.5 636,-236.5 630,-236.5 630,-236.5 415,-236.5 415,-236.5 409,-236.5 403,-230.5 403,-224.5 403,-224.5 403,-210.5 403,-210.5 403,-204.5 409,-198.5 415,-198.5"/>
<text text-anchor="middle" x="454" y="-213.8" font-family="Times,serif" font-size="14.00">ProjectMember</text>
<polyline fill="none" stroke="black" points="505,-198.5 505,-236.5 "/>
<text text-anchor="start" x="513" y="-221.3" font-family="Times,serif" font-size="14.00">+ id (PK)</text>
<text text-anchor="start" x="513" y="-206.3" font-family="Times,serif" font-size="14.00">+ projectRole (Enum)</text>
</g>
<!-- User&#45;&gt;ProjectMember -->
<g id="edge1" class="edge">
<title>User&#45;&gt;ProjectMember</title>
<path fill="none" stroke="black" d="M200.12,-228.2C257.62,-226.29 330.68,-223.85 392.61,-221.79"/>
<polygon fill="black" stroke="black" points="392.97,-225.28 402.85,-221.45 392.74,-218.29 392.97,-225.28"/>
<text text-anchor="middle" x="301.5" y="-230.3" font-family="Times,serif" font-size="14.00">1 User → * ProjectMember</text>
</g>
<!-- Issue -->
<g id="node4" class="node">
<title>Issue</title>
<path fill="lightgrey" stroke="black" d="M455,-66C455,-66 590,-66 590,-66 596,-66 602,-72 602,-78 602,-78 602,-167 602,-167 602,-173 596,-179 590,-179 590,-179 455,-179 455,-179 449,-179 443,-173 443,-167 443,-167 443,-78 443,-78 443,-72 449,-66 455,-66"/>
<text text-anchor="middle" x="465" y="-118.8" font-family="Times,serif" font-size="14.00">Issue</text>
<polyline fill="none" stroke="black" points="487,-66 487,-179 "/>
<text text-anchor="start" x="495" y="-163.8" font-family="Times,serif" font-size="14.00">+ id (PK)</text>
<text text-anchor="start" x="495" y="-148.8" font-family="Times,serif" font-size="14.00">+ title (NN)</text>
<text text-anchor="start" x="495" y="-133.8" font-family="Times,serif" font-size="14.00">+ description</text>
<text text-anchor="start" x="495" y="-118.8" font-family="Times,serif" font-size="14.00">+ priority (Enum)</text>
<text text-anchor="start" x="495" y="-103.8" font-family="Times,serif" font-size="14.00">+ status (Enum)</text>
<text text-anchor="start" x="495" y="-88.8" font-family="Times,serif" font-size="14.00">+ createdAt</text>
<text text-anchor="start" x="495" y="-73.8" font-family="Times,serif" font-size="14.00">+ updatedAt</text>
</g>
<!-- User&#45;&gt;Issue -->
<g id="edge4" class="edge">
<title>User&#45;&gt;Issue</title>
<path fill="none" stroke="black" d="M200.18,-206.57C206.2,-205.16 212.18,-203.8 218,-202.5 291.85,-186.06 311.95,-189.19 385,-169.5 400.63,-165.29 417.06,-160.21 432.9,-154.97"/>
<polygon fill="black" stroke="black" points="434.3,-158.19 442.67,-151.69 432.08,-151.55 434.3,-158.19"/>
<text text-anchor="middle" x="301.5" y="-206.3" font-family="Times,serif" font-size="14.00">createdBy / assignedTo</text>
</g>
<!-- Comment -->
<g id="node5" class="node">
<title>Comment</title>
<path fill="lightgrey" stroke="black" d="M827.5,-212C827.5,-212 975.5,-212 975.5,-212 981.5,-212 987.5,-218 987.5,-224 987.5,-224 987.5,-253 987.5,-253 987.5,-259 981.5,-265 975.5,-265 975.5,-265 827.5,-265 827.5,-265 821.5,-265 815.5,-259 815.5,-253 815.5,-253 815.5,-224 815.5,-224 815.5,-218 821.5,-212 827.5,-212"/>
<text text-anchor="middle" x="851" y="-234.8" font-family="Times,serif" font-size="14.00">Comment</text>
<polyline fill="none" stroke="black" points="886.5,-212 886.5,-265 "/>
<text text-anchor="start" x="894.5" y="-249.8" font-family="Times,serif" font-size="14.00">+ id (PK)</text>
<text text-anchor="start" x="894.5" y="-234.8" font-family="Times,serif" font-size="14.00">+ content (NN)</text>
<text text-anchor="start" x="894.5" y="-219.8" font-family="Times,serif" font-size="14.00">+ createdAt</text>
</g>
<!-- User&#45;&gt;Comment -->
<g id="edge6" class="edge">
<title>User&#45;&gt;Comment</title>
<path fill="none" stroke="black" d="M200.19,-244.16C206.21,-244.68 212.18,-245.14 218,-245.5 427.2,-258.54 673.16,-250.22 805.19,-243.83"/>
<polygon fill="black" stroke="black" points="805.46,-247.32 815.28,-243.33 805.12,-240.33 805.46,-247.32"/>
<text text-anchor="middle" x="522.5" y="-255.3" font-family="Times,serif" font-size="14.00">1 User → * Comments</text>
</g>
<!-- Project -->
<g id="node2" class="node">
<title>Project</title>
<path fill="lightgrey" stroke="black" d="M17,-65C17,-65 183,-65 183,-65 189,-65 195,-71 195,-77 195,-77 195,-136 195,-136 195,-142 189,-148 183,-148 183,-148 17,-148 17,-148 11,-148 5,-142 5,-136 5,-136 5,-77 5,-77 5,-71 11,-65 17,-65"/>
<text text-anchor="middle" x="32.5" y="-102.8" font-family="Times,serif" font-size="14.00">Project</text>
<polyline fill="none" stroke="black" points="60,-65 60,-148 "/>
<text text-anchor="start" x="68" y="-132.8" font-family="Times,serif" font-size="14.00">+ id (PK)</text>
<text text-anchor="start" x="68" y="-117.8" font-family="Times,serif" font-size="14.00">+ name (unique, NN)</text>
<text text-anchor="start" x="68" y="-102.8" font-family="Times,serif" font-size="14.00">+ description</text>
<text text-anchor="start" x="68" y="-87.8" font-family="Times,serif" font-size="14.00">+ createdAt</text>
<text text-anchor="start" x="68" y="-72.8" font-family="Times,serif" font-size="14.00">+ updatedAt</text>
</g>
<!-- Project&#45;&gt;ProjectMember -->
<g id="edge2" class="edge">
<title>Project&#45;&gt;ProjectMember</title>
<path fill="none" stroke="black" d="M195.11,-124.66C202.85,-126.01 210.55,-127.31 218,-128.5 254.96,-134.41 354.75,-128.46 385,-150.5 400.1,-161.51 388.52,-176.69 403,-188.5 405.01,-190.14 407.1,-191.69 409.26,-193.15"/>
<polygon fill="black" stroke="black" points="407.51,-196.19 417.88,-198.38 411.14,-190.2 407.51,-196.19"/>
<text text-anchor="middle" x="301.5" y="-154.3" font-family="Times,serif" font-size="14.00">1 Project → * ProjectMember</text>
</g>
<!-- Project&#45;&gt;Issue -->
<g id="edge3" class="edge">
<title>Project&#45;&gt;Issue</title>
<path fill="none" stroke="black" d="M195.05,-107.85C250.38,-108.88 321.69,-110.63 385,-113.5 400.37,-114.2 416.71,-115.12 432.54,-116.1"/>
<polygon fill="black" stroke="black" points="432.65,-119.62 442.85,-116.76 433.1,-112.63 432.65,-119.62"/>
<text text-anchor="middle" x="301.5" y="-117.3" font-family="Times,serif" font-size="14.00">1 Project → * Issues</text>
</g>
<!-- Deployment -->
<g id="node7" class="node">
<title>Deployment</title>
<path fill="lightgrey" stroke="black" d="M821,-0.5C821,-0.5 982,-0.5 982,-0.5 988,-0.5 994,-6.5 994,-12.5 994,-12.5 994,-56.5 994,-56.5 994,-62.5 988,-68.5 982,-68.5 982,-68.5 821,-68.5 821,-68.5 815,-68.5 809,-62.5 809,-56.5 809,-56.5 809,-12.5 809,-12.5 809,-6.5 815,-0.5 821,-0.5"/>
<text text-anchor="middle" x="851" y="-30.8" font-family="Times,serif" font-size="14.00">Deployment</text>
<polyline fill="none" stroke="black" points="893,-0.5 893,-68.5 "/>
<text text-anchor="start" x="901" y="-53.3" font-family="Times,serif" font-size="14.00">+ id (PK)</text>
<text text-anchor="start" x="901" y="-38.3" font-family="Times,serif" font-size="14.00">+ version (NN)</text>
<text text-anchor="start" x="901" y="-23.3" font-family="Times,serif" font-size="14.00">+ description</text>
<text text-anchor="start" x="901" y="-8.3" font-family="Times,serif" font-size="14.00">+ deployedAt</text>
</g>
<!-- Project&#45;&gt;Deployment -->
<g id="edge8" class="edge">
<title>Project&#45;&gt;Deployment</title>
<path fill="none" stroke="black" d="M195.08,-81.23C254.27,-66.58 332.53,-49.5 403,-41.5 539.29,-26.03 697.92,-27.06 798.74,-30.07"/>
<polygon fill="black" stroke="black" points="798.82,-33.57 808.92,-30.39 799.03,-26.58 798.82,-33.57"/>
<text text-anchor="middle" x="522.5" y="-45.3" font-family="Times,serif" font-size="14.00">1 Project → * Deployments</text>
</g>
<!-- Issue&#45;&gt;Comment -->
<g id="edge5" class="edge">
<title>Issue&#45;&gt;Comment</title>
<path fill="none" stroke="black" d="M602.07,-146.68C661.27,-164.89 742.7,-189.95 805.55,-209.28"/>
<polygon fill="black" stroke="black" points="804.88,-212.74 815.47,-212.34 806.94,-206.05 804.88,-212.74"/>
<text text-anchor="middle" x="725.5" y="-207.3" font-family="Times,serif" font-size="14.00">1 Issue → * Comments</text>
</g>
<!-- Attachment -->
<g id="node6" class="node">
<title>Attachment</title>
<path fill="lightgrey" stroke="black" d="M827.5,-88.5C827.5,-88.5 975.5,-88.5 975.5,-88.5 981.5,-88.5 987.5,-94.5 987.5,-100.5 987.5,-100.5 987.5,-144.5 987.5,-144.5 987.5,-150.5 981.5,-156.5 975.5,-156.5 975.5,-156.5 827.5,-156.5 827.5,-156.5 821.5,-156.5 815.5,-150.5 815.5,-144.5 815.5,-144.5 815.5,-100.5 815.5,-100.5 815.5,-94.5 821.5,-88.5 827.5,-88.5"/>
<text text-anchor="middle" x="855.5" y="-118.8" font-family="Times,serif" font-size="14.00">Attachment</text>
<polyline fill="none" stroke="black" points="895.5,-88.5 895.5,-156.5 "/>
<text text-anchor="start" x="903.5" y="-141.3" font-family="Times,serif" font-size="14.00">+ id (PK)</text>
<text text-anchor="start" x="903.5" y="-126.3" font-family="Times,serif" font-size="14.00">+ fileName</text>
<text text-anchor="start" x="903.5" y="-111.3" font-family="Times,serif" font-size="14.00">+ filePath</text>
<text text-anchor="start" x="903.5" y="-96.3" font-family="Times,serif" font-size="14.00">+ uploadedAt</text>
</g>
<!-- Issue&#45;&gt;Attachment -->
<g id="edge7" class="edge">
<title>Issue&#45;&gt;Attachment</title>
<path fill="none" stroke="black" d="M602.07,-122.5C661.15,-122.5 742.37,-122.5 805.16,-122.5"/>
<polygon fill="black" stroke="black" points="805.47,-126 815.47,-122.5 805.47,-119 805.47,-126"/>
<text text-anchor="middle" x="725.5" y="-126.3" font-family="Times,serif" font-size="14.00">0..* Attachments</text>
</g>
<!-- Issue&#45;&gt;Deployment -->
<g id="edge9" class="edge">
<title>Issue&#45;&gt;Deployment</title>
<path fill="none" stroke="black" d="M602.07,-104.16C659.22,-90.82 737.09,-72.64 798.96,-58.2"/>
<polygon fill="black" stroke="black" points="799.8,-61.6 808.75,-55.92 798.21,-54.78 799.8,-61.6"/>
<text text-anchor="middle" x="725.5" y="-92.3" font-family="Times,serif" font-size="14.00">M:N (fixed in release)</text>
</g>
</g>
</svg>
